<svg xmlns="http://www.w3.org/2000/svg" xmlns:xlink="http://www.w3.org/1999/xlink" width="500" zoomAndPan="magnify" viewBox="0 0 375 374.999991" height="500" preserveAspectRatio="xMidYMid meet" version="1.0"><defs><g/><clipPath id="25ef7bf910"><path d="M 38 148.53125 L 105 148.53125 L 105 202.53125 L 38 202.53125 Z M 38 148.53125 " clip-rule="nonzero"/></clipPath><clipPath id="848a88ade3"><path d="M 69.226562 150.335938 L 39.171875 197.671875 C 37.867188 199.730469 39.234375 202.53125 41.550781 202.53125 L 101.65625 202.53125 C 103.976562 202.53125 105.34375 199.730469 104.035156 197.671875 L 73.980469 150.335938 C 72.835938 148.535156 70.371094 148.535156 69.226562 150.335938 Z M 69.226562 150.335938 " clip-rule="nonzero"/></clipPath><linearGradient x1="-5.669992" gradientTransform="matrix(0.140934, 0, 0, 0.142218, 38.664761, 148.984676)" y1="188.246" x2="473.119985" gradientUnits="userSpaceOnUse" y2="188.246" id="9b397aea5e"><stop stop-opacity="1" stop-color="rgb(0%, 65.098572%, 31.759644%)" offset="0"/><stop stop-opacity="1" stop-color="rgb(0.106812%, 65.122986%, 31.745911%)" offset="0.015625"/><stop stop-opacity="1" stop-color="rgb(0.434875%, 65.197754%, 31.703186%)" offset="0.0195313"/><stop stop-opacity="1" stop-color="rgb(0.656128%, 65.248108%, 31.67572%)" offset="0.0234375"/><stop stop-opacity="1" stop-color="rgb(0.87738%, 65.298462%, 31.646729%)" offset="0.0273438"/><stop stop-opacity="1" stop-color="rgb(1.098633%, 65.348816%, 31.619263%)" offset="0.03125"/><stop stop-opacity="1" stop-color="rgb(1.319885%, 65.39917%, 31.590271%)" offset="0.0351562"/><stop stop-opacity="1" stop-color="rgb(1.541138%, 65.449524%, 31.562805%)" offset="0.0390625"/><stop stop-opacity="1" stop-color="rgb(1.76239%, 65.499878%, 31.533813%)" offset="0.0429688"/><stop stop-opacity="1" stop-color="rgb(1.983643%, 65.550232%, 31.506348%)" offset="0.046875"/><stop stop-opacity="1" stop-color="rgb(2.204895%, 65.59906%, 31.477356%)" offset="0.0507812"/><stop stop-opacity="1" stop-color="rgb(2.426147%, 65.649414%, 31.44989%)" offset="0.0546875"/><stop stop-opacity="1" stop-color="rgb(2.6474%, 65.699768%, 31.420898%)" offset="0.0585938"/><stop stop-opacity="1" stop-color="rgb(2.868652%, 65.750122%, 31.393433%)" offset="0.0625"/><stop stop-opacity="1" stop-color="rgb(3.089905%, 65.800476%, 31.364441%)" offset="0.0664062"/><stop stop-opacity="1" stop-color="rgb(3.311157%, 65.85083%, 31.336975%)" offset="0.0703125"/><stop stop-opacity="1" stop-color="rgb(3.530884%, 65.901184%, 31.307983%)" offset="0.0742188"/><stop stop-opacity="1" stop-color="rgb(3.752136%, 65.951538%, 31.280518%)" offset="0.078125"/><stop stop-opacity="1" stop-color="rgb(3.973389%, 66.001892%, 31.251526%)" offset="0.0820313"/><stop stop-opacity="1" stop-color="rgb(4.194641%, 66.052246%, 31.22406%)" offset="0.0859375"/><stop stop-opacity="1" stop-color="rgb(4.415894%, 66.101074%, 31.195068%)" offset="0.0898438"/><stop stop-opacity="1" stop-color="rgb(4.637146%, 66.151428%, 31.167603%)" offset="0.09375"/><stop stop-opacity="1" stop-color="rgb(4.858398%, 66.201782%, 31.138611%)" offset="0.0976563"/><stop stop-opacity="1" stop-color="rgb(5.079651%, 66.252136%, 31.111145%)" offset="0.101563"/><stop stop-opacity="1" stop-color="rgb(5.300903%, 66.30249%, 31.082153%)" offset="0.105469"/><stop stop-opacity="1" stop-color="rgb(5.522156%, 66.352844%, 31.054688%)" offset="0.109375"/><stop stop-opacity="1" stop-color="rgb(5.743408%, 66.403198%, 31.025696%)" offset="0.113281"/><stop stop-opacity="1" stop-color="rgb(5.964661%, 66.453552%, 30.99823%)" offset="0.117188"/><stop stop-opacity="1" stop-color="rgb(6.185913%, 66.503906%, 30.969238%)" offset="0.121094"/><stop stop-opacity="1" stop-color="rgb(6.407166%, 66.55426%, 30.941772%)" offset="0.125"/><stop stop-opacity="1" stop-color="rgb(6.628418%, 66.604614%, 30.912781%)" offset="0.128906"/><stop stop-opacity="1" stop-color="rgb(6.84967%, 66.654968%, 30.885315%)" offset="0.132813"/><stop stop-opacity="1" stop-color="rgb(7.070923%, 66.703796%, 30.856323%)" offset="0.136719"/><stop stop-opacity="1" stop-color="rgb(7.292175%, 66.75415%, 30.828857%)" offset="0.140625"/><stop stop-opacity="1" stop-color="rgb(7.513428%, 66.804504%, 30.799866%)" offset="0.144531"/><stop stop-opacity="1" stop-color="rgb(7.73468%, 66.854858%, 30.7724%)" offset="0.148438"/><stop stop-opacity="1" stop-color="rgb(7.955933%, 66.905212%, 30.743408%)" offset="0.152344"/><stop stop-opacity="1" stop-color="rgb(8.177185%, 66.955566%, 30.715942%)" offset="0.15625"/><stop stop-opacity="1" stop-color="rgb(8.398438%, 67.00592%, 30.686951%)" offset="0.160156"/><stop stop-opacity="1" stop-color="rgb(8.61969%, 67.056274%, 30.659485%)" offset="0.164063"/><stop stop-opacity="1" stop-color="rgb(8.840942%, 67.106628%, 30.630493%)" offset="0.167969"/><stop stop-opacity="1" stop-color="rgb(9.062195%, 67.156982%, 30.603027%)" offset="0.171875"/><stop stop-opacity="1" stop-color="rgb(9.283447%, 67.205811%, 30.574036%)" offset="0.175781"/><stop stop-opacity="1" stop-color="rgb(9.5047%, 67.256165%, 30.54657%)" offset="0.179688"/><stop stop-opacity="1" stop-color="rgb(9.725952%, 67.306519%, 30.517578%)" offset="0.183594"/><stop stop-opacity="1" stop-color="rgb(9.947205%, 67.356873%, 30.490112%)" offset="0.1875"/><stop stop-opacity="1" stop-color="rgb(10.168457%, 67.407227%, 30.461121%)" offset="0.191406"/><stop stop-opacity="1" stop-color="rgb(10.389709%, 67.457581%, 30.433655%)" offset="0.195313"/><stop stop-opacity="1" stop-color="rgb(10.610962%, 67.507935%, 30.406189%)" offset="0.199219"/><stop stop-opacity="1" stop-color="rgb(10.832214%, 67.558289%, 30.378723%)" offset="0.203125"/><stop stop-opacity="1" stop-color="rgb(11.053467%, 67.608643%, 30.349731%)" offset="0.207031"/><stop stop-opacity="1" stop-color="rgb(11.274719%, 67.658997%, 30.322266%)" offset="0.210938"/><stop stop-opacity="1" stop-color="rgb(11.495972%, 67.707825%, 30.293274%)" offset="0.214844"/><stop stop-opacity="1" stop-color="rgb(11.717224%, 67.758179%, 30.265808%)" offset="0.21875"/><stop stop-opacity="1" stop-color="rgb(11.938477%, 67.808533%, 30.236816%)" offset="0.222656"/><stop stop-opacity="1" stop-color="rgb(12.159729%, 67.858887%, 30.209351%)" offset="0.226563"/><stop stop-opacity="1" stop-color="rgb(12.380981%, 67.909241%, 30.180359%)" offset="0.230469"/><stop stop-opacity="1" stop-color="rgb(12.602234%, 67.959595%, 30.152893%)" offset="0.234375"/><stop stop-opacity="1" stop-color="rgb(12.82196%, 68.009949%, 30.123901%)" offset="0.238281"/><stop stop-opacity="1" stop-color="rgb(13.043213%, 68.060303%, 30.096436%)" offset="0.242188"/><stop stop-opacity="1" stop-color="rgb(13.264465%, 68.110657%, 30.067444%)" offset="0.246094"/><stop stop-opacity="1" stop-color="rgb(13.485718%, 68.161011%, 30.039978%)" offset="0.25"/><stop stop-opacity="1" stop-color="rgb(13.70697%, 68.211365%, 30.010986%)" offset="0.253906"/><stop stop-opacity="1" stop-color="rgb(13.928223%, 68.261719%, 29.983521%)" offset="0.257812"/><stop stop-opacity="1" stop-color="rgb(14.149475%, 68.310547%, 29.954529%)" offset="0.261719"/><stop stop-opacity="1" stop-color="rgb(14.370728%, 68.360901%, 29.927063%)" offset="0.265625"/><stop stop-opacity="1" stop-color="rgb(14.59198%, 68.411255%, 29.898071%)" offset="0.269531"/><stop stop-opacity="1" stop-color="rgb(14.813232%, 68.461609%, 29.870605%)" offset="0.273438"/><stop stop-opacity="1" stop-color="rgb(15.034485%, 68.511963%, 29.841614%)" offset="0.277344"/><stop stop-opacity="1" stop-color="rgb(15.255737%, 68.562317%, 29.814148%)" offset="0.28125"/><stop stop-opacity="1" stop-color="rgb(15.47699%, 68.612671%, 29.785156%)" offset="0.285156"/><stop stop-opacity="1" stop-color="rgb(15.698242%, 68.663025%, 29.75769%)" offset="0.289062"/><stop stop-opacity="1" stop-color="rgb(15.919495%, 68.713379%, 29.728699%)" offset="0.292969"/><stop stop-opacity="1" stop-color="rgb(16.140747%, 68.763733%, 29.701233%)" offset="0.296875"/><stop stop-opacity="1" stop-color="rgb(16.362%, 68.812561%, 29.672241%)" offset="0.300781"/><stop stop-opacity="1" stop-color="rgb(16.583252%, 68.862915%, 29.644775%)" offset="0.304688"/><stop stop-opacity="1" stop-color="rgb(16.804504%, 68.913269%, 29.615784%)" offset="0.308594"/><stop stop-opacity="1" stop-color="rgb(17.025757%, 68.963623%, 29.588318%)" offset="0.3125"/><stop stop-opacity="1" stop-color="rgb(17.247009%, 69.013977%, 29.559326%)" offset="0.316406"/><stop stop-opacity="1" stop-color="rgb(17.468262%, 69.064331%, 29.53186%)" offset="0.320312"/><stop stop-opacity="1" stop-color="rgb(17.689514%, 69.114685%, 29.502869%)" offset="0.324219"/><stop stop-opacity="1" stop-color="rgb(17.910767%, 69.165039%, 29.475403%)" offset="0.328125"/><stop stop-opacity="1" stop-color="rgb(18.132019%, 69.215393%, 29.446411%)" offset="0.332031"/><stop stop-opacity="1" stop-color="rgb(18.353271%, 69.265747%, 29.418945%)" offset="0.335938"/><stop stop-opacity="1" stop-color="rgb(18.574524%, 69.316101%, 29.389954%)" offset="0.339844"/><stop stop-opacity="1" stop-color="rgb(18.795776%, 69.366455%, 29.362488%)" offset="0.34375"/><stop stop-opacity="1" stop-color="rgb(19.017029%, 69.415283%, 29.333496%)" offset="0.347656"/><stop stop-opacity="1" stop-color="rgb(19.238281%, 69.465637%, 29.30603%)" offset="0.351562"/><stop stop-opacity="1" stop-color="rgb(19.459534%, 69.515991%, 29.277039%)" offset="0.355469"/><stop stop-opacity="1" stop-color="rgb(19.680786%, 69.566345%, 29.249573%)" offset="0.359375"/><stop stop-opacity="1" stop-color="rgb(19.902039%, 69.616699%, 29.220581%)" offset="0.363281"/><stop stop-opacity="1" stop-color="rgb(20.123291%, 69.667053%, 29.193115%)" offset="0.367188"/><stop stop-opacity="1" stop-color="rgb(20.344543%, 69.717407%, 29.164124%)" offset="0.371094"/><stop stop-opacity="1" stop-color="rgb(20.565796%, 69.767761%, 29.136658%)" offset="0.375"/><stop stop-opacity="1" stop-color="rgb(20.787048%, 69.818115%, 29.107666%)" offset="0.378906"/><stop stop-opacity="1" stop-color="rgb(21.008301%, 69.868469%, 29.0802%)" offset="0.382812"/><stop stop-opacity="1" stop-color="rgb(21.229553%, 69.917297%, 29.051208%)" offset="0.386719"/><stop stop-opacity="1" stop-color="rgb(21.450806%, 69.967651%, 29.023743%)" offset="0.390625"/><stop stop-opacity="1" stop-color="rgb(21.670532%, 70.018005%, 28.994751%)" offset="0.394531"/><stop stop-opacity="1" stop-color="rgb(21.891785%, 70.068359%, 28.967285%)" offset="0.398438"/><stop stop-opacity="1" stop-color="rgb(22.113037%, 70.118713%, 28.938293%)" offset="0.402344"/><stop stop-opacity="1" stop-color="rgb(22.33429%, 70.169067%, 28.910828%)" offset="0.40625"/><stop stop-opacity="1" stop-color="rgb(22.555542%, 70.219421%, 28.881836%)" offset="0.410156"/><stop stop-opacity="1" stop-color="rgb(22.776794%, 70.269775%, 28.85437%)" offset="0.414062"/><stop stop-opacity="1" stop-color="rgb(22.998047%, 70.320129%, 28.825378%)" offset="0.417969"/><stop stop-opacity="1" stop-color="rgb(23.219299%, 70.370483%, 28.797913%)" offset="0.421875"/><stop stop-opacity="1" stop-color="rgb(23.440552%, 70.419312%, 28.768921%)" offset="0.425781"/><stop stop-opacity="1" stop-color="rgb(23.661804%, 70.469666%, 28.741455%)" offset="0.429688"/><stop stop-opacity="1" stop-color="rgb(23.883057%, 70.52002%, 28.712463%)" offset="0.433594"/><stop stop-opacity="1" stop-color="rgb(24.104309%, 70.570374%, 28.684998%)" offset="0.4375"/><stop stop-opacity="1" stop-color="rgb(24.325562%, 70.620728%, 28.656006%)" offset="0.441406"/><stop stop-opacity="1" stop-color="rgb(24.546814%, 70.671082%, 28.62854%)" offset="0.445312"/><stop stop-opacity="1" stop-color="rgb(24.768066%, 70.721436%, 28.599548%)" offset="0.449219"/><stop stop-opacity="1" stop-color="rgb(24.989319%, 70.77179%, 28.572083%)" offset="0.453125"/><stop stop-opacity="1" stop-color="rgb(25.210571%, 70.822144%, 28.543091%)" offset="0.457031"/><stop stop-opacity="1" stop-color="rgb(25.431824%, 70.872498%, 28.515625%)" offset="0.460938"/><stop stop-opacity="1" stop-color="rgb(25.653076%, 70.922852%, 28.486633%)" offset="0.464844"/><stop stop-opacity="1" stop-color="rgb(25.874329%, 70.973206%, 28.459167%)" offset="0.46875"/><stop stop-opacity="1" stop-color="rgb(26.095581%, 71.022034%, 28.431702%)" offset="0.472656"/><stop stop-opacity="1" stop-color="rgb(26.316833%, 71.072388%, 28.404236%)" offset="0.476562"/><stop stop-opacity="1" stop-color="rgb(26.538086%, 71.122742%, 28.375244%)" offset="0.480469"/><stop stop-opacity="1" stop-color="rgb(26.759338%, 71.173096%, 28.347778%)" offset="0.484375"/><stop stop-opacity="1" stop-color="rgb(26.980591%, 71.22345%, 28.318787%)" offset="0.488281"/><stop stop-opacity="1" stop-color="rgb(27.201843%, 71.273804%, 28.291321%)" offset="0.492188"/><stop stop-opacity="1" stop-color="rgb(27.423096%, 71.324158%, 28.262329%)" offset="0.496094"/><stop stop-opacity="1" stop-color="rgb(27.644348%, 71.374512%, 28.234863%)" offset="0.5"/><stop stop-opacity="1" stop-color="rgb(27.865601%, 71.424866%, 28.205872%)" offset="0.503906"/><stop stop-opacity="1" stop-color="rgb(28.086853%, 71.47522%, 28.178406%)" offset="0.507812"/><stop stop-opacity="1" stop-color="rgb(28.308105%, 71.524048%, 28.149414%)" offset="0.511719"/><stop stop-opacity="1" stop-color="rgb(28.529358%, 71.574402%, 28.121948%)" offset="0.515625"/><stop stop-opacity="1" stop-color="rgb(28.75061%, 71.624756%, 28.092957%)" offset="0.519531"/><stop stop-opacity="1" stop-color="rgb(28.971863%, 71.67511%, 28.065491%)" offset="0.523438"/><stop stop-opacity="1" stop-color="rgb(29.193115%, 71.725464%, 28.036499%)" offset="0.527344"/><stop stop-opacity="1" stop-color="rgb(29.414368%, 71.775818%, 28.009033%)" offset="0.53125"/><stop stop-opacity="1" stop-color="rgb(29.63562%, 71.826172%, 27.980042%)" offset="0.535156"/><stop stop-opacity="1" stop-color="rgb(29.856873%, 71.876526%, 27.952576%)" offset="0.539062"/><stop stop-opacity="1" stop-color="rgb(30.078125%, 71.92688%, 27.923584%)" offset="0.542969"/><stop stop-opacity="1" stop-color="rgb(30.299377%, 71.977234%, 27.896118%)" offset="0.546875"/><stop stop-opacity="1" stop-color="rgb(30.52063%, 72.027588%, 27.867126%)" offset="0.550781"/><stop stop-opacity="1" stop-color="rgb(30.741882%, 72.077942%, 27.839661%)" offset="0.554688"/><stop stop-opacity="1" stop-color="rgb(30.961609%, 72.12677%, 27.810669%)" offset="0.558594"/><stop stop-opacity="1" stop-color="rgb(31.182861%, 72.177124%, 27.783203%)" offset="0.5625"/><stop stop-opacity="1" stop-color="rgb(31.404114%, 72.227478%, 27.754211%)" offset="0.566406"/><stop stop-opacity="1" stop-color="rgb(31.625366%, 72.277832%, 27.726746%)" offset="0.570312"/><stop stop-opacity="1" stop-color="rgb(31.846619%, 72.328186%, 27.697754%)" offset="0.574219"/><stop stop-opacity="1" stop-color="rgb(32.067871%, 72.37854%, 27.670288%)" offset="0.578125"/><stop stop-opacity="1" stop-color="rgb(32.289124%, 72.428894%, 27.641296%)" offset="0.582031"/><stop stop-opacity="1" stop-color="rgb(32.510376%, 72.479248%, 27.613831%)" offset="0.585938"/><stop stop-opacity="1" stop-color="rgb(32.731628%, 72.529602%, 27.584839%)" offset="0.589844"/><stop stop-opacity="1" stop-color="rgb(32.952881%, 72.579956%, 27.557373%)" offset="0.59375"/><stop stop-opacity="1" stop-color="rgb(33.174133%, 72.628784%, 27.528381%)" offset="0.597656"/><stop stop-opacity="1" stop-color="rgb(33.395386%, 72.679138%, 27.500916%)" offset="0.601563"/><stop stop-opacity="1" stop-color="rgb(33.616638%, 72.729492%, 27.471924%)" offset="0.605469"/><stop stop-opacity="1" stop-color="rgb(33.837891%, 72.779846%, 27.444458%)" offset="0.609375"/><stop stop-opacity="1" stop-color="rgb(34.059143%, 72.8302%, 27.415466%)" offset="0.613281"/><stop stop-opacity="1" stop-color="rgb(34.280396%, 72.880554%, 27.388%)" offset="0.617188"/><stop stop-opacity="1" stop-color="rgb(34.501648%, 72.930908%, 27.359009%)" offset="0.621094"/><stop stop-opacity="1" stop-color="rgb(34.7229%, 72.981262%, 27.331543%)" offset="0.625"/><stop stop-opacity="1" stop-color="rgb(34.944153%, 73.031616%, 27.302551%)" offset="0.628906"/><stop stop-opacity="1" stop-color="rgb(35.165405%, 73.08197%, 27.275085%)" offset="0.632813"/><stop stop-opacity="1" stop-color="rgb(35.386658%, 73.130798%, 27.246094%)" offset="0.636719"/><stop stop-opacity="1" stop-color="rgb(35.60791%, 73.181152%, 27.218628%)" offset="0.640625"/><stop stop-opacity="1" stop-color="rgb(35.829163%, 73.231506%, 27.189636%)" offset="0.644531"/><stop stop-opacity="1" stop-color="rgb(36.050415%, 73.28186%, 27.16217%)" offset="0.648438"/><stop stop-opacity="1" stop-color="rgb(36.271667%, 73.332214%, 27.133179%)" offset="0.652344"/><stop stop-opacity="1" stop-color="rgb(36.49292%, 73.382568%, 27.105713%)" offset="0.65625"/><stop stop-opacity="1" stop-color="rgb(36.714172%, 73.432922%, 27.076721%)" offset="0.660156"/><stop stop-opacity="1" stop-color="rgb(36.935425%, 73.483276%, 27.049255%)" offset="0.664063"/><stop stop-opacity="1" stop-color="rgb(37.156677%, 73.53363%, 27.020264%)" offset="0.667969"/><stop stop-opacity="1" stop-color="rgb(37.37793%, 73.583984%, 26.992798%)" offset="0.671875"/><stop stop-opacity="1" stop-color="rgb(37.599182%, 73.634338%, 26.963806%)" offset="0.675781"/><stop stop-opacity="1" stop-color="rgb(37.820435%, 73.684692%, 26.93634%)" offset="0.679688"/><stop stop-opacity="1" stop-color="rgb(38.041687%, 73.733521%, 26.907349%)" offset="0.683594"/><stop stop-opacity="1" stop-color="rgb(38.262939%, 73.783875%, 26.879883%)" offset="0.6875"/><stop stop-opacity="1" stop-color="rgb(38.484192%, 73.834229%, 26.850891%)" offset="0.691406"/><stop stop-opacity="1" stop-color="rgb(38.705444%, 73.884583%, 26.823425%)" offset="0.695313"/><stop stop-opacity="1" stop-color="rgb(38.926697%, 73.934937%, 26.794434%)" offset="0.699219"/><stop stop-opacity="1" stop-color="rgb(39.147949%, 73.985291%, 26.766968%)" offset="0.703125"/><stop stop-opacity="1" stop-color="rgb(39.369202%, 74.035645%, 26.737976%)" offset="0.707031"/><stop stop-opacity="1" stop-color="rgb(39.590454%, 74.085999%, 26.71051%)" offset="0.710938"/><stop stop-opacity="1" stop-color="rgb(39.810181%, 74.136353%, 26.681519%)" offset="0.714844"/><stop stop-opacity="1" stop-color="rgb(40.031433%, 74.186707%, 26.654053%)" offset="0.71875"/><stop stop-opacity="1" stop-color="rgb(40.252686%, 74.235535%, 26.625061%)" offset="0.722656"/><stop stop-opacity="1" stop-color="rgb(40.473938%, 74.285889%, 26.597595%)" offset="0.726563"/><stop stop-opacity="1" stop-color="rgb(40.69519%, 74.336243%, 26.568604%)" offset="0.730469"/><stop stop-opacity="1" stop-color="rgb(40.916443%, 74.386597%, 26.541138%)" offset="0.734375"/><stop stop-opacity="1" stop-color="rgb(41.137695%, 74.436951%, 26.512146%)" offset="0.738281"/><stop stop-opacity="1" stop-color="rgb(41.358948%, 74.487305%, 26.48468%)" offset="0.742188"/><stop stop-opacity="1" stop-color="rgb(41.5802%, 74.537659%, 26.457214%)" offset="0.746094"/><stop stop-opacity="1" stop-color="rgb(41.801453%, 74.588013%, 26.429749%)" offset="0.75"/><stop stop-opacity="1" stop-color="rgb(42.022705%, 74.638367%, 26.400757%)" offset="0.753906"/><stop stop-opacity="1" stop-color="rgb(42.243958%, 74.688721%, 26.373291%)" offset="0.757812"/><stop stop-opacity="1" stop-color="rgb(42.46521%, 74.737549%, 26.344299%)" offset="0.761719"/><stop stop-opacity="1" stop-color="rgb(42.686462%, 74.787903%, 26.316833%)" offset="0.765625"/><stop stop-opacity="1" stop-color="rgb(42.907715%, 74.838257%, 26.287842%)" offset="0.769531"/><stop stop-opacity="1" stop-color="rgb(43.128967%, 74.888611%, 26.260376%)" offset="0.773438"/><stop stop-opacity="1" stop-color="rgb(43.35022%, 74.938965%, 26.231384%)" offset="0.777344"/><stop stop-opacity="1" stop-color="rgb(43.571472%, 74.989319%, 26.203918%)" offset="0.78125"/><stop stop-opacity="1" stop-color="rgb(43.792725%, 75.039673%, 26.174927%)" offset="0.785156"/><stop stop-opacity="1" stop-color="rgb(44.013977%, 75.090027%, 26.147461%)" offset="0.789062"/><stop stop-opacity="1" stop-color="rgb(44.235229%, 75.140381%, 26.118469%)" offset="0.792969"/><stop stop-opacity="1" stop-color="rgb(44.456482%, 75.190735%, 26.091003%)" offset="0.796875"/><stop stop-opacity="1" stop-color="rgb(44.677734%, 75.241089%, 26.062012%)" offset="0.800781"/><stop stop-opacity="1" stop-color="rgb(44.898987%, 75.291443%, 26.034546%)" offset="0.804688"/><stop stop-opacity="1" stop-color="rgb(45.120239%, 75.340271%, 26.005554%)" offset="0.808594"/><stop stop-opacity="1" stop-color="rgb(45.341492%, 75.390625%, 25.978088%)" offset="0.8125"/><stop stop-opacity="1" stop-color="rgb(45.562744%, 75.440979%, 25.949097%)" offset="0.816406"/><stop stop-opacity="1" stop-color="rgb(45.783997%, 75.491333%, 25.921631%)" offset="0.820312"/><stop stop-opacity="1" stop-color="rgb(46.005249%, 75.541687%, 25.892639%)" offset="0.824219"/><stop stop-opacity="1" stop-color="rgb(46.226501%, 75.592041%, 25.865173%)" offset="0.828125"/><stop stop-opacity="1" stop-color="rgb(46.447754%, 75.642395%, 25.836182%)" offset="0.832031"/><stop stop-opacity="1" stop-color="rgb(46.669006%, 75.692749%, 25.808716%)" offset="0.835938"/><stop stop-opacity="1" stop-color="rgb(46.890259%, 75.743103%, 25.779724%)" offset="0.839844"/><stop stop-opacity="1" stop-color="rgb(47.111511%, 75.793457%, 25.752258%)" offset="0.84375"/><stop stop-opacity="1" stop-color="rgb(47.332764%, 75.842285%, 25.723267%)" offset="0.847656"/><stop stop-opacity="1" stop-color="rgb(47.554016%, 75.892639%, 25.695801%)" offset="0.851563"/><stop stop-opacity="1" stop-color="rgb(47.775269%, 75.942993%, 25.666809%)" offset="0.855469"/><stop stop-opacity="1" stop-color="rgb(47.996521%, 75.993347%, 25.639343%)" offset="0.859375"/><stop stop-opacity="1" stop-color="rgb(48.217773%, 76.043701%, 25.610352%)" offset="0.863281"/><stop stop-opacity="1" stop-color="rgb(48.439026%, 76.094055%, 25.582886%)" offset="0.867188"/><stop stop-opacity="1" stop-color="rgb(48.658752%, 76.144409%, 25.553894%)" offset="0.871094"/><stop stop-opacity="1" stop-color="rgb(48.880005%, 76.194763%, 25.526428%)" offset="0.875"/><stop stop-opacity="1" stop-color="rgb(49.101257%, 76.245117%, 25.497437%)" offset="0.878906"/><stop stop-opacity="1" stop-color="rgb(49.32251%, 76.295471%, 25.469971%)" offset="0.882813"/><stop stop-opacity="1" stop-color="rgb(49.543762%, 76.345825%, 25.440979%)" offset="0.886719"/><stop stop-opacity="1" stop-color="rgb(49.765015%, 76.396179%, 25.413513%)" offset="0.890625"/><stop stop-opacity="1" stop-color="rgb(49.986267%, 76.445007%, 25.384521%)" offset="0.894531"/><stop stop-opacity="1" stop-color="rgb(50.20752%, 76.495361%, 25.357056%)" offset="0.898438"/><stop stop-opacity="1" stop-color="rgb(50.428772%, 76.545715%, 25.328064%)" offset="0.902344"/><stop stop-opacity="1" stop-color="rgb(50.650024%, 76.596069%, 25.300598%)" offset="0.90625"/><stop stop-opacity="1" stop-color="rgb(50.871277%, 76.646423%, 25.271606%)" offset="0.910156"/><stop stop-opacity="1" stop-color="rgb(51.092529%, 76.696777%, 25.244141%)" offset="0.914063"/><stop stop-opacity="1" stop-color="rgb(51.313782%, 76.747131%, 25.215149%)" offset="0.917969"/><stop stop-opacity="1" stop-color="rgb(51.535034%, 76.797485%, 25.187683%)" offset="0.921875"/><stop stop-opacity="1" stop-color="rgb(51.756287%, 76.847839%, 25.158691%)" offset="0.925781"/><stop stop-opacity="1" stop-color="rgb(51.977539%, 76.898193%, 25.131226%)" offset="0.929688"/><stop stop-opacity="1" stop-color="rgb(52.198792%, 76.947021%, 25.102234%)" offset="0.933594"/><stop stop-opacity="1" stop-color="rgb(52.420044%, 76.997375%, 25.074768%)" offset="0.9375"/><stop stop-opacity="1" stop-color="rgb(52.641296%, 77.047729%, 25.045776%)" offset="0.941406"/><stop stop-opacity="1" stop-color="rgb(52.862549%, 77.098083%, 25.018311%)" offset="0.945313"/><stop stop-opacity="1" stop-color="rgb(53.083801%, 77.148438%, 24.989319%)" offset="0.949219"/><stop stop-opacity="1" stop-color="rgb(53.305054%, 77.198792%, 24.961853%)" offset="0.953125"/><stop stop-opacity="1" stop-color="rgb(53.526306%, 77.249146%, 24.932861%)" offset="0.957031"/><stop stop-opacity="1" stop-color="rgb(53.747559%, 77.2995%, 24.905396%)" offset="0.960938"/><stop stop-opacity="1" stop-color="rgb(53.968811%, 77.349854%, 24.876404%)" offset="0.964844"/><stop stop-opacity="1" stop-color="rgb(54.190063%, 77.400208%, 24.848938%)" offset="0.96875"/><stop stop-opacity="1" stop-color="rgb(54.411316%, 77.449036%, 24.819946%)" offset="0.972656"/><stop stop-opacity="1" stop-color="rgb(54.632568%, 77.49939%, 24.79248%)" offset="0.976562"/><stop stop-opacity="1" stop-color="rgb(54.853821%, 77.549744%, 24.763489%)" offset="0.980469"/><stop stop-opacity="1" stop-color="rgb(55.075073%, 77.600098%, 24.736023%)" offset="0.984375"/><stop stop-opacity="1" stop-color="rgb(55.181885%, 77.624512%, 24.72229%)" offset="1"/></linearGradient><clipPath id="9ceb49fc9e"><path d="M 109.683594 154.855469 L 195.183594 154.855469 L 195.183594 204.355469 L 109.683594 204.355469 Z M 109.683594 154.855469 " clip-rule="nonzero"/></clipPath><clipPath id="0fa88eee84"><path d="M 202.03125 151.246094 L 260.53125 151.246094 L 260.53125 209.746094 L 202.03125 209.746094 Z M 202.03125 151.246094 " clip-rule="nonzero"/></clipPath></defs><g clip-path="url(#25ef7bf910)"><g clip-path="url(#848a88ade3)"><path fill="url(#9b397aea5e)" d="M 37.867188 148.535156 L 37.867188 202.53125 L 105.34375 202.53125 L 105.34375 148.535156 Z M 37.867188 148.535156 " fill-rule="nonzero"/></g></g><g clip-path="url(#9ceb49fc9e)"><path fill="#6cc7f4" d="M 110.007812 164.980469 L 110.0625 165.1875 C 110.039062 165.410156 110.015625 165.523438 110.007812 164.980469 Z M 123.953125 155.289062 L 123.589844 155.34375 C 123.671875 155.347656 123.753906 155.355469 123.839844 155.359375 C 123.929688 155.339844 123.972656 155.320312 123.953125 155.289062 Z M 109.824219 172.582031 C 109.871094 172.328125 109.910156 172.039062 109.9375 171.738281 C 109.898438 171.625 109.851562 171.929688 109.824219 172.582031 Z M 129.777344 155.320312 C 130.171875 155.328125 130.511719 155.335938 130.878906 155.34375 C 130.636719 155.320312 130.246094 155.304688 129.777344 155.320312 Z M 135.996094 204.207031 C 136.070312 204.214844 136.15625 204.21875 136.273438 204.226562 Z M 194.808594 194.007812 L 194.859375 194.214844 C 194.855469 193.671875 194.832031 193.78125 194.808594 194.007812 Z M 180.917969 203.90625 L 181.28125 203.847656 C 181.199219 203.847656 181.113281 203.839844 181.03125 203.835938 C 180.941406 203.855469 180.898438 203.875 180.917969 203.90625 Z M 195.046875 186.613281 C 194.996094 186.867188 194.960938 187.15625 194.933594 187.457031 C 194.972656 187.566406 195.023438 187.265625 195.046875 186.613281 Z M 175.089844 203.875 C 174.699219 203.867188 174.359375 203.859375 173.992188 203.847656 C 174.238281 203.875 174.625 203.886719 175.089844 203.875 Z M 168.871094 154.984375 C 168.800781 154.980469 168.714844 154.976562 168.597656 154.96875 Z M 194.835938 165.933594 C 194.757812 169.359375 194.898438 169.941406 194.855469 173.609375 L 194.917969 171.890625 C 195.121094 173.792969 194.804688 177.519531 195.035156 178.082031 C 195 180.28125 194.773438 182.164062 194.8125 184.839844 L 195.011719 183.695312 L 195.015625 186.136719 L 194.878906 186.167969 C 194.871094 186.957031 194.898438 187.359375 194.933594 187.457031 C 194.773438 189.125 194.863281 191.457031 194.742188 193.746094 L 194.808594 194.007812 C 194.792969 194.183594 194.773438 194.425781 194.761719 194.484375 C 194.878906 194.941406 194.835938 196.773438 194.949219 196.871094 C 194.972656 196.132812 195.035156 194.425781 194.964844 194.5625 C 195.101562 192.699219 195.039062 196.847656 195.042969 198.070312 C 194.976562 196.75 194.957031 198.453125 194.933594 199.195312 C 194.949219 199.3125 194.957031 199.066406 194.988281 198.945312 C 194.996094 199.234375 195 199.496094 194.996094 199.738281 C 194.996094 199.863281 194.992188 199.980469 194.992188 200.09375 C 194.992188 200.117188 194.988281 200.152344 194.988281 200.1875 C 194.984375 200.222656 194.980469 200.257812 194.980469 200.292969 C 194.972656 200.363281 194.96875 200.429688 194.960938 200.496094 C 194.894531 201.027344 194.722656 201.464844 194.515625 201.832031 C 194.304688 202.203125 194.074219 202.515625 193.792969 202.804688 C 193.511719 203.097656 193.203125 203.375 192.796875 203.648438 L 192.546875 203.699219 C 192.460938 203.710938 192.375 203.71875 192.292969 203.726562 C 192.207031 203.765625 192.125 203.796875 192.035156 203.820312 C 191.945312 203.847656 191.859375 203.875 191.769531 203.898438 C 191.589844 203.933594 191.40625 203.976562 191.222656 203.988281 C 191.023438 204.007812 190.886719 204.011719 190.734375 204.019531 L 190.28125 204.042969 C 190.121094 203.785156 187.738281 204.019531 187.445312 203.777344 C 185.382812 203.769531 187.71875 203.925781 186.984375 203.898438 C 185.0625 203.949219 181.683594 203.714844 181.03125 203.835938 C 180.324219 203.800781 179.59375 203.789062 178.878906 203.785156 C 178.554688 203.804688 178.238281 203.824219 177.933594 203.824219 C 176.808594 203.816406 176.640625 203.796875 176.796875 203.769531 C 176.578125 203.765625 176.359375 203.761719 176.15625 203.753906 L 176.054688 203.863281 C 175.375 203.839844 174.585938 203.789062 173.902344 203.800781 C 174.015625 203.8125 174.113281 203.828125 174.167969 203.847656 C 174.09375 203.839844 173.964844 203.832031 173.800781 203.824219 C 173.84375 203.832031 173.90625 203.839844 173.988281 203.847656 C 173.125 203.828125 172.3125 203.8125 171.53125 203.800781 C 171.476562 203.804688 171.421875 203.808594 171.371094 203.8125 C 171.390625 203.859375 173.453125 203.867188 172.125 203.886719 C 169.992188 203.847656 168.566406 203.863281 167.269531 203.886719 C 167.472656 203.898438 167.761719 203.910156 168.175781 203.917969 C 167.433594 203.953125 166.523438 203.945312 165.519531 203.925781 C 164.445312 203.949219 163.28125 203.96875 161.703125 203.960938 L 162.082031 204.042969 C 161.589844 204.027344 161.214844 203.988281 160.742188 204.015625 L 161.003906 204.070312 C 160.382812 204.074219 155.988281 203.957031 153.09375 203.988281 L 154.566406 204.085938 L 151.992188 203.96875 L 152.277344 204.117188 C 151.386719 203.96875 148.371094 204.066406 145.941406 204.023438 L 145.957031 204.117188 L 144.488281 204.0625 L 144.988281 204.128906 C 143.527344 204.121094 141.800781 203.964844 140.125 204.039062 C 141.207031 204.011719 141.464844 204.160156 141.367188 204.222656 L 136.960938 204.0625 C 136.863281 204.121094 135.238281 204.144531 135.996094 204.203125 L 134.546875 204.109375 L 134.679688 204.183594 C 127.804688 204.320312 121.863281 203.78125 115.007812 204.105469 L 115.132812 204.132812 L 114.125 204.089844 L 113.875 204.085938 C 113.78125 204.082031 113.667969 204.070312 113.566406 204.0625 C 113.457031 204.054688 113.355469 204.035156 113.25 204.015625 C 113.148438 203.996094 113.042969 203.976562 112.941406 203.945312 C 112.125 203.726562 111.40625 203.222656 110.898438 202.570312 C 110.613281 202.222656 110.441406 201.984375 110.25 201.664062 C 110.167969 201.5 110.066406 201.316406 109.992188 201.066406 C 109.910156 200.824219 109.851562 200.519531 109.832031 200.132812 C 109.96875 200.703125 109.847656 197.804688 109.964844 197.046875 C 109.910156 196.09375 109.871094 197.070312 109.816406 197.332031 C 109.683594 193.441406 109.910156 190.355469 109.8125 186.109375 C 110.003906 190.335938 109.957031 190.355469 110.035156 193.257812 C 110.113281 189.835938 109.972656 189.25 110.015625 185.582031 L 109.953125 187.300781 C 109.75 185.398438 110.066406 181.675781 109.835938 181.109375 C 109.871094 178.914062 110.097656 177.03125 110.0625 174.355469 L 109.859375 175.496094 L 109.855469 173.058594 L 109.992188 173.023438 C 110 172.234375 109.972656 171.832031 109.941406 171.738281 C 110.097656 170.066406 110.007812 167.738281 110.132812 165.445312 L 110.0625 165.183594 C 110.082031 165.007812 110.097656 164.769531 110.113281 164.707031 C 109.992188 164.253906 110.035156 162.421875 109.925781 162.324219 C 109.898438 163.0625 109.832031 164.769531 109.910156 164.632812 C 109.773438 166.496094 109.832031 162.34375 109.832031 161.125 C 109.894531 162.445312 109.914062 160.738281 109.941406 160 C 109.921875 159.882812 109.914062 160.128906 109.886719 160.25 C 109.875 159.964844 109.871094 159.699219 109.875 159.457031 C 109.875 159.335938 109.878906 159.214844 109.878906 159.105469 C 109.878906 159.078125 109.882812 159.042969 109.886719 159.007812 C 109.886719 158.972656 109.890625 158.9375 109.890625 158.902344 C 109.898438 158.832031 109.90625 158.765625 109.910156 158.699219 C 109.976562 158.167969 110.152344 157.730469 110.355469 157.363281 C 110.5625 156.992188 110.796875 156.679688 111.078125 156.386719 C 111.359375 156.097656 111.667969 155.820312 112.074219 155.542969 L 112.324219 155.496094 C 112.410156 155.484375 112.496094 155.476562 112.578125 155.46875 C 112.664062 155.429688 112.75 155.398438 112.835938 155.375 C 112.925781 155.347656 113.011719 155.320312 113.101562 155.296875 C 113.285156 155.261719 113.464844 155.21875 113.648438 155.207031 C 113.851562 155.183594 113.988281 155.183594 114.140625 155.175781 L 114.589844 155.152344 C 114.75 155.410156 117.136719 155.175781 117.425781 155.417969 C 119.488281 155.425781 117.152344 155.269531 117.886719 155.296875 C 119.804688 155.242188 123.1875 155.480469 123.839844 155.355469 C 124.542969 155.394531 125.273438 155.40625 125.988281 155.410156 C 126.316406 155.386719 126.628906 155.371094 126.9375 155.367188 C 128.0625 155.378906 128.230469 155.398438 128.070312 155.425781 C 128.289062 155.425781 128.507812 155.433594 128.710938 155.441406 L 128.8125 155.328125 C 129.492188 155.355469 130.28125 155.402344 130.964844 155.394531 C 130.851562 155.382812 130.753906 155.363281 130.699219 155.34375 C 130.773438 155.351562 130.902344 155.363281 131.070312 155.371094 C 131.027344 155.363281 130.960938 155.351562 130.878906 155.34375 C 131.742188 155.367188 132.554688 155.382812 133.335938 155.390625 C 133.394531 155.386719 133.449219 155.382812 133.496094 155.382812 C 133.476562 155.335938 131.414062 155.328125 132.742188 155.308594 C 134.875 155.34375 136.300781 155.332031 137.597656 155.304688 C 137.398438 155.292969 137.109375 155.285156 136.695312 155.277344 C 137.4375 155.242188 138.34375 155.246094 139.347656 155.265625 C 140.421875 155.242188 141.585938 155.222656 143.167969 155.230469 L 142.785156 155.148438 C 143.28125 155.167969 143.65625 155.203125 144.128906 155.175781 L 143.867188 155.121094 C 144.484375 155.121094 148.882812 155.234375 151.777344 155.203125 L 150.300781 155.105469 L 152.878906 155.222656 L 152.59375 155.074219 C 153.484375 155.222656 156.5 155.125 158.929688 155.167969 L 158.914062 155.078125 L 160.382812 155.128906 L 159.882812 155.066406 C 161.339844 155.074219 163.070312 155.230469 164.746094 155.152344 C 163.664062 155.183594 163.402344 155.035156 163.503906 154.96875 L 167.910156 155.132812 C 168.007812 155.074219 169.628906 155.050781 168.871094 154.992188 L 170.320312 155.082031 L 170.1875 155.003906 C 177.066406 154.867188 183.003906 155.40625 189.859375 155.082031 L 189.734375 155.054688 L 190.742188 155.097656 L 190.996094 155.105469 C 191.085938 155.113281 191.203125 155.125 191.304688 155.132812 C 191.410156 155.136719 191.515625 155.160156 191.617188 155.179688 C 191.722656 155.199219 191.824219 155.214844 191.925781 155.25 C 192.746094 155.464844 193.464844 155.972656 193.96875 156.621094 C 194.257812 156.96875 194.429688 157.207031 194.621094 157.53125 C 194.703125 157.695312 194.800781 157.878906 194.875 158.125 C 194.960938 158.371094 195.019531 158.671875 195.039062 159.058594 C 194.902344 158.488281 195.023438 161.386719 194.90625 162.148438 C 194.960938 163.097656 194.996094 162.121094 195.050781 161.863281 C 195.1875 165.75 194.957031 168.839844 195.054688 173.082031 C 194.867188 168.855469 194.914062 168.839844 194.835938 165.933594 Z M 110.019531 172.109375 L 110.023438 171.445312 C 110.011719 171.683594 110.011719 171.898438 110.019531 172.109375 L 110.007812 173.15625 C 110.097656 173.042969 110.039062 172.648438 110.019531 172.109375 Z M 110.195312 175.554688 C 110.105469 175.578125 110.089844 177.277344 110.023438 177.785156 C 110.042969 178.515625 110.125 177.519531 110.179688 177.261719 C 110.191406 177.621094 110.183594 177.867188 110.164062 178.363281 C 110.355469 178.078125 110.097656 177.03125 110.195312 175.554688 Z M 110.359375 192.507812 L 110.355469 192.507812 C 110.355469 192.535156 110.355469 192.5625 110.355469 192.589844 C 110.355469 192.5625 110.359375 192.535156 110.359375 192.507812 Z M 110.386719 189.734375 C 110.386719 189.691406 110.386719 189.644531 110.382812 189.59375 L 110.34375 189.78125 C 110.359375 189.75 110.371094 189.738281 110.386719 189.734375 Z M 110.667969 169.0625 L 110.667969 169.039062 C 110.652344 169.148438 110.636719 169.292969 110.625 169.457031 C 110.644531 169.335938 110.65625 169.21875 110.667969 169.0625 Z M 110.730469 160.878906 C 110.707031 161.4375 110.671875 161.960938 110.605469 162.421875 C 110.660156 162.605469 110.695312 162.585938 110.730469 162.65625 Z M 115.8125 203.890625 C 115.347656 203.808594 115.003906 203.808594 114.632812 203.824219 C 114.445312 203.832031 114.253906 203.839844 114.039062 203.84375 C 113.984375 203.84375 113.929688 203.847656 113.871094 203.847656 C 113.808594 203.847656 113.734375 203.839844 113.664062 203.835938 C 113.589844 203.828125 113.511719 203.828125 113.4375 203.8125 C 113.359375 203.800781 113.28125 203.785156 113.199219 203.765625 C 113.089844 203.746094 112.980469 203.703125 112.875 203.675781 C 112.996094 203.710938 113.089844 203.75 113.199219 203.765625 C 113.292969 203.789062 113.386719 203.8125 113.488281 203.835938 C 113.585938 203.847656 113.6875 203.863281 113.796875 203.878906 C 113.992188 203.90625 114.164062 203.917969 114.371094 203.933594 C 114.777344 203.957031 115.246094 203.957031 115.8125 203.890625 Z M 118.71875 203.8125 C 118.671875 203.785156 118.445312 203.773438 118.191406 203.765625 C 117.726562 203.761719 117.265625 203.757812 116.800781 203.753906 C 116.75 203.757812 116.695312 203.757812 116.636719 203.761719 C 115.910156 203.777344 117.867188 203.847656 118.71875 203.8125 Z M 134.75 203.261719 L 133.882812 203.261719 C 134.039062 203.265625 134.175781 203.277344 134.289062 203.285156 C 134.480469 203.28125 134.640625 203.269531 134.75 203.261719 Z M 147.109375 155.320312 C 146.472656 155.261719 146.351562 155.167969 145.234375 155.234375 C 146.148438 155.25 146.074219 155.386719 147.089844 155.378906 C 147.039062 155.359375 147.082031 155.339844 147.109375 155.320312 Z M 159.636719 203.957031 C 158.722656 203.945312 158.796875 203.804688 157.78125 203.816406 C 157.832031 203.835938 157.789062 203.855469 157.757812 203.875 C 158.398438 203.929688 158.515625 204.027344 159.636719 203.957031 Z M 170.988281 155.933594 C 170.832031 155.925781 170.695312 155.917969 170.582031 155.910156 C 170.390625 155.917969 170.230469 155.925781 170.121094 155.933594 Z M 186.152344 155.382812 C 186.199219 155.40625 186.425781 155.421875 186.679688 155.429688 C 187.144531 155.433594 187.609375 155.4375 188.070312 155.441406 C 188.121094 155.4375 188.175781 155.4375 188.234375 155.433594 C 188.960938 155.417969 187.003906 155.34375 186.152344 155.382812 Z M 191.996094 155.519531 C 191.878906 155.484375 191.785156 155.445312 191.675781 155.425781 C 191.582031 155.40625 191.484375 155.382812 191.386719 155.359375 C 191.289062 155.34375 191.183594 155.332031 191.078125 155.316406 C 190.882812 155.289062 190.707031 155.277344 190.5 155.261719 C 190.09375 155.238281 189.628906 155.234375 189.058594 155.304688 C 189.523438 155.382812 189.867188 155.382812 190.238281 155.371094 C 190.425781 155.363281 190.617188 155.355469 190.832031 155.351562 C 190.890625 155.351562 190.945312 155.347656 191.003906 155.347656 C 191.0625 155.347656 191.136719 155.355469 191.210938 155.359375 C 191.28125 155.363281 191.359375 155.367188 191.433594 155.382812 C 191.511719 155.394531 191.589844 155.410156 191.671875 155.425781 C 191.785156 155.449219 191.890625 155.492188 191.996094 155.519531 Z M 194.511719 166.6875 C 194.511719 166.660156 194.515625 166.632812 194.515625 166.605469 C 194.515625 166.632812 194.511719 166.660156 194.511719 166.6875 Z M 194.203125 190.132812 L 194.203125 190.15625 C 194.21875 190.046875 194.234375 189.902344 194.246094 189.738281 C 194.226562 189.859375 194.210938 189.976562 194.203125 190.132812 Z M 194.265625 196.773438 C 194.210938 196.589844 194.175781 196.609375 194.140625 196.539062 L 194.140625 198.316406 C 194.164062 197.757812 194.203125 197.234375 194.265625 196.773438 Z M 194.527344 169.414062 C 194.511719 169.441406 194.496094 169.457031 194.484375 169.460938 C 194.484375 169.503906 194.484375 169.550781 194.488281 169.601562 Z M 194.851562 187.085938 L 194.84375 187.75 C 194.859375 187.511719 194.855469 187.296875 194.851562 187.085938 L 194.859375 186.039062 C 194.773438 186.152344 194.832031 186.546875 194.851562 187.085938 Z M 194.691406 181.933594 C 194.683594 181.574219 194.6875 181.328125 194.707031 180.832031 C 194.515625 181.117188 194.773438 182.164062 194.675781 183.640625 C 194.765625 183.617188 194.78125 181.917969 194.847656 181.410156 C 194.828125 180.683594 194.746094 181.675781 194.691406 181.933594 Z M 194.691406 181.933594 " fill-opacity="1" fill-rule="nonzero"/></g><g clip-path="url(#0fa88eee84)"><path fill="#ffce46" d="M 260.53125 180.496094 C 260.53125 181.453125 260.484375 182.410156 260.390625 183.363281 C 260.296875 184.316406 260.15625 185.261719 259.96875 186.203125 C 259.78125 187.140625 259.550781 188.070312 259.273438 188.984375 C 258.992188 189.902344 258.671875 190.804688 258.304688 191.6875 C 257.9375 192.574219 257.53125 193.4375 257.078125 194.285156 C 256.625 195.128906 256.132812 195.949219 255.601562 196.746094 C 255.070312 197.542969 254.5 198.3125 253.890625 199.050781 C 253.285156 199.792969 252.640625 200.5 251.964844 201.179688 C 251.289062 201.855469 250.578125 202.5 249.835938 203.105469 C 249.097656 203.714844 248.328125 204.285156 247.53125 204.816406 C 246.734375 205.347656 245.914062 205.839844 245.070312 206.292969 C 244.226562 206.742188 243.359375 207.152344 242.476562 207.519531 C 241.589844 207.886719 240.6875 208.207031 239.773438 208.484375 C 238.855469 208.765625 237.925781 208.996094 236.988281 209.183594 C 236.046875 209.371094 235.101562 209.511719 234.148438 209.605469 C 233.195312 209.699219 232.238281 209.746094 231.28125 209.746094 C 230.324219 209.746094 229.367188 209.699219 228.414062 209.605469 C 227.460938 209.511719 226.515625 209.371094 225.574219 209.183594 C 224.636719 208.996094 223.707031 208.765625 222.789062 208.484375 C 221.875 208.207031 220.972656 207.886719 220.089844 207.519531 C 219.203125 207.152344 218.339844 206.742188 217.492188 206.292969 C 216.648438 205.839844 215.828125 205.347656 215.03125 204.816406 C 214.234375 204.285156 213.464844 203.714844 212.726562 203.105469 C 211.984375 202.5 211.277344 201.855469 210.597656 201.179688 C 209.921875 200.5 209.277344 199.792969 208.671875 199.050781 C 208.0625 198.3125 207.492188 197.542969 206.960938 196.746094 C 206.429688 195.949219 205.9375 195.128906 205.484375 194.285156 C 205.035156 193.4375 204.625 192.574219 204.257812 191.6875 C 203.890625 190.804688 203.570312 189.902344 203.292969 188.984375 C 203.011719 188.070312 202.78125 187.140625 202.59375 186.203125 C 202.40625 185.261719 202.265625 184.316406 202.171875 183.363281 C 202.078125 182.410156 202.03125 181.453125 202.03125 180.496094 C 202.03125 179.539062 202.078125 178.582031 202.171875 177.628906 C 202.265625 176.675781 202.40625 175.730469 202.59375 174.789062 C 202.78125 173.847656 203.011719 172.921875 203.292969 172.003906 C 203.570312 171.085938 203.890625 170.1875 204.257812 169.300781 C 204.625 168.417969 205.035156 167.550781 205.484375 166.707031 C 205.9375 165.863281 206.429688 165.042969 206.960938 164.246094 C 207.492188 163.449219 208.0625 162.679688 208.671875 161.9375 C 209.277344 161.199219 209.921875 160.488281 210.597656 159.8125 C 211.277344 159.136719 211.984375 158.492188 212.726562 157.886719 C 213.464844 157.277344 214.234375 156.707031 215.03125 156.175781 C 215.828125 155.644531 216.648438 155.152344 217.492188 154.699219 C 218.339844 154.246094 219.203125 153.839844 220.089844 153.472656 C 220.972656 153.105469 221.875 152.78125 222.789062 152.503906 C 223.707031 152.226562 224.636719 151.996094 225.574219 151.808594 C 226.515625 151.621094 227.460938 151.480469 228.414062 151.386719 C 229.367188 151.292969 230.324219 151.246094 231.28125 151.246094 C 232.238281 151.246094 233.195312 151.292969 234.148438 151.386719 C 235.101562 151.480469 236.046875 151.621094 236.988281 151.808594 C 237.925781 151.996094 238.855469 152.226562 239.773438 152.503906 C 240.6875 152.78125 241.589844 153.105469 242.476562 153.472656 C 243.359375 153.839844 244.226562 154.246094 245.070312 154.699219 C 245.914062 155.152344 246.734375 155.644531 247.53125 156.175781 C 248.328125 156.707031 249.097656 157.277344 249.835938 157.886719 C 250.578125 158.492188 251.289062 159.136719 251.964844 159.8125 C 252.640625 160.488281 253.285156 161.199219 253.890625 161.9375 C 254.5 162.679688 255.070312 163.449219 255.601562 164.246094 C 256.132812 165.042969 256.625 165.863281 257.078125 166.707031 C 257.53125 167.550781 257.9375 168.417969 258.304688 169.300781 C 258.671875 170.1875 258.992188 171.085938 259.273438 172.003906 C 259.550781 172.921875 259.78125 173.847656 259.96875 174.789062 C 260.15625 175.730469 260.296875 176.675781 260.390625 177.628906 C 260.484375 178.582031 260.53125 179.539062 260.53125 180.496094 Z M 260.53125 180.496094 " fill-opacity="1" fill-rule="nonzero"/></g><g fill="#ffffff" fill-opacity="1"><g transform="translate(36.955014, 188.951282)"><g><path d="M 2.046875 -16.203125 L 7.078125 -16.203125 C 9.378906 -16.203125 11.046875 -15.875 12.078125 -15.21875 C 13.117188 -14.570312 13.640625 -13.535156 13.640625 -12.109375 C 13.640625 -11.140625 13.410156 -10.34375 12.953125 -9.71875 C 12.503906 -9.101562 11.90625 -8.734375 11.15625 -8.609375 L 11.15625 -8.484375 C 12.175781 -8.253906 12.914062 -7.828125 13.375 -7.203125 C 13.832031 -6.578125 14.0625 -5.742188 14.0625 -4.703125 C 14.0625 -3.222656 13.523438 -2.066406 12.453125 -1.234375 C 11.390625 -0.410156 9.941406 0 8.109375 0 L 2.046875 0 Z M 5.46875 -9.78125 L 7.46875 -9.78125 C 8.40625 -9.78125 9.082031 -9.925781 9.5 -10.21875 C 9.914062 -10.507812 10.125 -10.988281 10.125 -11.65625 C 10.125 -12.269531 9.894531 -12.710938 9.4375 -12.984375 C 8.976562 -13.253906 8.257812 -13.390625 7.28125 -13.390625 L 5.46875 -13.390625 Z M 5.46875 -7.0625 L 5.46875 -2.84375 L 7.71875 -2.84375 C 8.664062 -2.84375 9.363281 -3.019531 9.8125 -3.375 C 10.257812 -3.738281 10.484375 -4.296875 10.484375 -5.046875 C 10.484375 -6.390625 9.523438 -7.0625 7.609375 -7.0625 Z M 5.46875 -7.0625 "/></g></g></g><g fill="#ffffff" fill-opacity="1"><g transform="translate(55.885601, 188.951282)"><g><path d="M 2.046875 0 L 2.046875 -16.203125 L 5.46875 -16.203125 L 5.46875 -2.84375 L 12.046875 -2.84375 L 12.046875 0 Z M 2.046875 0 "/></g></g></g><g fill="#ffffff" fill-opacity="1"><g transform="translate(72.388884, 188.951282)"><g><path d="M 15.234375 -16.203125 L 15.234375 -5.71875 C 15.234375 -4.519531 14.960938 -3.46875 14.421875 -2.5625 C 13.890625 -1.664062 13.117188 -0.976562 12.109375 -0.5 C 11.097656 -0.0195312 9.898438 0.21875 8.515625 0.21875 C 6.429688 0.21875 4.8125 -0.3125 3.65625 -1.375 C 2.5 -2.445312 1.921875 -3.910156 1.921875 -5.765625 L 1.921875 -16.203125 L 5.359375 -16.203125 L 5.359375 -6.28125 C 5.359375 -5.03125 5.609375 -4.113281 6.109375 -3.53125 C 6.609375 -2.945312 7.441406 -2.65625 8.609375 -2.65625 C 9.722656 -2.65625 10.535156 -2.945312 11.046875 -3.53125 C 11.554688 -4.125 11.8125 -5.050781 11.8125 -6.3125 L 11.8125 -16.203125 Z M 15.234375 -16.203125 "/></g></g></g><g fill="#ffffff" fill-opacity="1"><g transform="translate(93.22585, 188.951282)"><g><path d="M 11.375 0 L 2.046875 0 L 2.046875 -16.203125 L 11.375 -16.203125 L 11.375 -13.390625 L 5.46875 -13.390625 L 5.46875 -9.828125 L 10.96875 -9.828125 L 10.96875 -7.015625 L 5.46875 -7.015625 L 5.46875 -2.84375 L 11.375 -2.84375 Z M 11.375 0 "/></g></g></g><g fill="#ffffff" fill-opacity="1"><g transform="translate(109.618298, 188.951282)"><g><path d="M 15.078125 0 L 11.171875 0 L 6.921875 -6.828125 L 5.46875 -5.78125 L 5.46875 0 L 2.046875 0 L 2.046875 -16.203125 L 5.46875 -16.203125 L 5.46875 -8.796875 L 6.828125 -10.703125 L 11.21875 -16.203125 L 15.03125 -16.203125 L 9.375 -9.03125 Z M 15.078125 0 "/></g></g></g><g fill="#ffffff" fill-opacity="1"><g transform="translate(128.371546, 188.951282)"><g><path d="M 2.046875 0 L 2.046875 -16.203125 L 5.46875 -16.203125 L 5.46875 0 Z M 2.046875 0 "/></g></g></g><g fill="#ffffff" fill-opacity="1"><g transform="translate(139.565778, 188.951282)"><g><path d="M 16.75 -8.125 C 16.75 -5.445312 16.082031 -3.382812 14.75 -1.9375 C 13.425781 -0.5 11.519531 0.21875 9.03125 0.21875 C 6.550781 0.21875 4.644531 -0.5 3.3125 -1.9375 C 1.976562 -3.382812 1.3125 -5.453125 1.3125 -8.140625 C 1.3125 -10.835938 1.976562 -12.898438 3.3125 -14.328125 C 4.65625 -15.753906 6.570312 -16.46875 9.0625 -16.46875 C 11.550781 -16.46875 13.453125 -15.75 14.765625 -14.3125 C 16.085938 -12.875 16.75 -10.8125 16.75 -8.125 Z M 4.921875 -8.125 C 4.921875 -6.3125 5.265625 -4.945312 5.953125 -4.03125 C 6.640625 -3.113281 7.664062 -2.65625 9.03125 -2.65625 C 11.769531 -2.65625 13.140625 -4.476562 13.140625 -8.125 C 13.140625 -11.78125 11.78125 -13.609375 9.0625 -13.609375 C 7.6875 -13.609375 6.648438 -13.144531 5.953125 -12.21875 C 5.265625 -11.300781 4.921875 -9.9375 4.921875 -8.125 Z M 4.921875 -8.125 "/></g></g></g><g fill="#ffffff" fill-opacity="1"><g transform="translate(161.3116, 188.951282)"><g><path d="M 11.609375 -4.5 C 11.609375 -3.039062 11.082031 -1.890625 10.03125 -1.046875 C 8.976562 -0.203125 7.507812 0.21875 5.625 0.21875 C 3.894531 0.21875 2.367188 -0.101562 1.046875 -0.75 L 1.046875 -3.953125 C 2.140625 -3.460938 3.0625 -3.113281 3.8125 -2.90625 C 4.570312 -2.707031 5.265625 -2.609375 5.890625 -2.609375 C 6.648438 -2.609375 7.226562 -2.753906 7.625 -3.046875 C 8.03125 -3.335938 8.234375 -3.765625 8.234375 -4.328125 C 8.234375 -4.648438 8.144531 -4.929688 7.96875 -5.171875 C 7.789062 -5.421875 7.53125 -5.660156 7.1875 -5.890625 C 6.84375 -6.117188 6.144531 -6.488281 5.09375 -7 C 4.101562 -7.457031 3.359375 -7.898438 2.859375 -8.328125 C 2.367188 -8.765625 1.972656 -9.265625 1.671875 -9.828125 C 1.378906 -10.398438 1.234375 -11.066406 1.234375 -11.828125 C 1.234375 -13.265625 1.71875 -14.390625 2.6875 -15.203125 C 3.65625 -16.023438 5 -16.4375 6.71875 -16.4375 C 7.5625 -16.4375 8.363281 -16.335938 9.125 -16.140625 C 9.894531 -15.941406 10.695312 -15.660156 11.53125 -15.296875 L 10.421875 -12.625 C 9.554688 -12.976562 8.835938 -13.222656 8.265625 -13.359375 C 7.703125 -13.503906 7.148438 -13.578125 6.609375 -13.578125 C 5.953125 -13.578125 5.453125 -13.425781 5.109375 -13.125 C 4.765625 -12.820312 4.59375 -12.425781 4.59375 -11.9375 C 4.59375 -11.632812 4.660156 -11.367188 4.796875 -11.140625 C 4.941406 -10.921875 5.164062 -10.703125 5.46875 -10.484375 C 5.78125 -10.273438 6.507812 -9.898438 7.65625 -9.359375 C 9.164062 -8.628906 10.203125 -7.898438 10.765625 -7.171875 C 11.328125 -6.453125 11.609375 -5.5625 11.609375 -4.5 Z M 11.609375 -4.5 "/></g></g></g><g fill="#ffffff" fill-opacity="1"><g transform="translate(177.493453, 188.951282)"><g><path d="M 15.078125 0 L 11.171875 0 L 6.921875 -6.828125 L 5.46875 -5.78125 L 5.46875 0 L 2.046875 0 L 2.046875 -16.203125 L 5.46875 -16.203125 L 5.46875 -8.796875 L 6.828125 -10.703125 L 11.21875 -16.203125 L 15.03125 -16.203125 L 9.375 -9.03125 Z M 15.078125 0 "/></g></g></g><g fill="#ffffff" fill-opacity="1"><g transform="translate(196.246702, 188.951282)"><g><path d="M 8.296875 0 L 4.859375 0 L 4.859375 -13.34375 L 0.453125 -13.34375 L 0.453125 -16.203125 L 12.6875 -16.203125 L 12.6875 -13.34375 L 8.296875 -13.34375 Z M 8.296875 0 "/></g></g></g><g fill="#ffffff" fill-opacity="1"><g transform="translate(213.071404, 188.951282)"><g><path d="M 11.375 0 L 2.046875 0 L 2.046875 -16.203125 L 11.375 -16.203125 L 11.375 -13.390625 L 5.46875 -13.390625 L 5.46875 -9.828125 L 10.96875 -9.828125 L 10.96875 -7.015625 L 5.46875 -7.015625 L 5.46875 -2.84375 L 11.375 -2.84375 Z M 11.375 0 "/></g></g></g><g fill="#ffffff" fill-opacity="1"><g transform="translate(229.463852, 188.951282)"><g><path d="M 8.921875 -13.578125 C 7.628906 -13.578125 6.628906 -13.09375 5.921875 -12.125 C 5.210938 -11.15625 4.859375 -9.800781 4.859375 -8.0625 C 4.859375 -4.445312 6.210938 -2.640625 8.921875 -2.640625 C 10.054688 -2.640625 11.4375 -2.921875 13.0625 -3.484375 L 13.0625 -0.609375 C 11.726562 -0.0546875 10.242188 0.21875 8.609375 0.21875 C 6.242188 0.21875 4.4375 -0.492188 3.1875 -1.921875 C 1.9375 -3.347656 1.3125 -5.398438 1.3125 -8.078125 C 1.3125 -9.765625 1.617188 -11.238281 2.234375 -12.5 C 2.847656 -13.769531 3.726562 -14.742188 4.875 -15.421875 C 6.03125 -16.097656 7.378906 -16.4375 8.921875 -16.4375 C 10.492188 -16.4375 12.078125 -16.054688 13.671875 -15.296875 L 12.5625 -12.5 C 11.957031 -12.789062 11.347656 -13.039062 10.734375 -13.25 C 10.117188 -13.46875 9.515625 -13.578125 8.921875 -13.578125 Z M 8.921875 -13.578125 "/></g></g></g><g fill="#ffffff" fill-opacity="1"><g transform="translate(247.607497, 188.951282)"><g><path d="M 15.3125 0 L 11.890625 0 L 11.890625 -7 L 5.46875 -7 L 5.46875 0 L 2.046875 0 L 2.046875 -16.203125 L 5.46875 -16.203125 L 5.46875 -9.859375 L 11.890625 -9.859375 L 11.890625 -16.203125 L 15.3125 -16.203125 Z M 15.3125 0 "/></g></g></g><g fill="#ffffff" fill-opacity="1"><g transform="translate(268.655057, 188.951282)"><g><path d="M 1.296875 -1.578125 C 1.296875 -2.203125 1.460938 -2.671875 1.796875 -2.984375 C 2.128906 -3.304688 2.613281 -3.46875 3.25 -3.46875 C 3.863281 -3.46875 4.335938 -3.304688 4.671875 -2.984375 C 5.003906 -2.660156 5.171875 -2.191406 5.171875 -1.578125 C 5.171875 -0.992188 5 -0.535156 4.65625 -0.203125 C 4.320312 0.128906 3.851562 0.296875 3.25 0.296875 C 2.625 0.296875 2.140625 0.132812 1.796875 -0.1875 C 1.460938 -0.519531 1.296875 -0.984375 1.296875 -1.578125 Z M 1.296875 -1.578125 "/></g></g></g><g fill="#ff5757" fill-opacity="1"><g transform="translate(278.818283, 188.951282)"><g><path d="M 8.671875 -12.625 C 10.128906 -12.625 11.269531 -12.050781 12.09375 -10.90625 C 12.925781 -9.769531 13.34375 -8.207031 13.34375 -6.21875 C 13.34375 -4.164062 12.914062 -2.578125 12.0625 -1.453125 C 11.207031 -0.335938 10.046875 0.21875 8.578125 0.21875 C 7.117188 0.21875 5.976562 -0.304688 5.15625 -1.359375 L 4.921875 -1.359375 L 4.359375 0 L 1.78125 0 L 1.78125 -17.25 L 5.15625 -17.25 L 5.15625 -13.234375 C 5.15625 -12.722656 5.109375 -11.90625 5.015625 -10.78125 L 5.15625 -10.78125 C 5.945312 -12.007812 7.117188 -12.625 8.671875 -12.625 Z M 7.578125 -9.921875 C 6.742188 -9.921875 6.132812 -9.660156 5.75 -9.140625 C 5.363281 -8.628906 5.164062 -7.785156 5.15625 -6.609375 L 5.15625 -6.234375 C 5.15625 -4.910156 5.351562 -3.957031 5.75 -3.375 C 6.144531 -2.800781 6.769531 -2.515625 7.625 -2.515625 C 8.320312 -2.515625 8.875 -2.832031 9.28125 -3.46875 C 9.695312 -4.113281 9.90625 -5.046875 9.90625 -6.265625 C 9.90625 -7.484375 9.695312 -8.394531 9.28125 -9 C 8.863281 -9.613281 8.296875 -9.921875 7.578125 -9.921875 Z M 7.578125 -9.921875 "/></g></g></g><g fill="#ff5757" fill-opacity="1"><g transform="translate(296.862182, 188.951282)"><g><path d="M 5.15625 0 L 1.78125 0 L 1.78125 -17.25 L 5.15625 -17.25 Z M 5.15625 0 "/></g></g></g><g fill="#ff5757" fill-opacity="1"><g transform="translate(307.468989, 188.951282)"><g><path d="M 4.46875 -6.21875 C 4.46875 -4.988281 4.664062 -4.0625 5.0625 -3.4375 C 5.46875 -2.8125 6.128906 -2.5 7.046875 -2.5 C 7.941406 -2.5 8.585938 -2.8125 8.984375 -3.4375 C 9.378906 -4.0625 9.578125 -4.988281 9.578125 -6.21875 C 9.578125 -7.445312 9.375 -8.367188 8.96875 -8.984375 C 8.570312 -9.597656 7.921875 -9.90625 7.015625 -9.90625 C 6.117188 -9.90625 5.46875 -9.597656 5.0625 -8.984375 C 4.664062 -8.367188 4.46875 -7.445312 4.46875 -6.21875 Z M 13.03125 -6.21875 C 13.03125 -4.195312 12.5 -2.617188 11.4375 -1.484375 C 10.375 -0.347656 8.894531 0.21875 7 0.21875 C 5.800781 0.21875 4.75 -0.0390625 3.84375 -0.5625 C 2.9375 -1.082031 2.238281 -1.828125 1.75 -2.796875 C 1.257812 -3.773438 1.015625 -4.914062 1.015625 -6.21875 C 1.015625 -8.238281 1.539062 -9.8125 2.59375 -10.9375 C 3.65625 -12.0625 5.144531 -12.625 7.0625 -12.625 C 8.25 -12.625 9.296875 -12.363281 10.203125 -11.84375 C 11.117188 -11.332031 11.816406 -10.59375 12.296875 -9.625 C 12.785156 -8.65625 13.03125 -7.519531 13.03125 -6.21875 Z M 13.03125 -6.21875 "/></g></g></g><g fill="#ff5757" fill-opacity="1"><g transform="translate(325.202547, 188.951282)"><g><path d="M 12.5625 -12.390625 L 12.5625 -10.671875 L 10.625 -10.171875 C 10.976562 -9.617188 11.15625 -9 11.15625 -8.3125 C 11.15625 -6.976562 10.691406 -5.941406 9.765625 -5.203125 C 8.835938 -4.460938 7.546875 -4.09375 5.890625 -4.09375 L 5.28125 -4.125 L 4.78125 -4.171875 C 4.4375 -3.910156 4.265625 -3.617188 4.265625 -3.296875 C 4.265625 -2.804688 4.882812 -2.5625 6.125 -2.5625 L 8.234375 -2.5625 C 9.597656 -2.5625 10.632812 -2.269531 11.34375 -1.6875 C 12.0625 -1.101562 12.421875 -0.242188 12.421875 0.890625 C 12.421875 2.335938 11.816406 3.457031 10.609375 4.25 C 9.398438 5.050781 7.664062 5.453125 5.40625 5.453125 C 3.664062 5.453125 2.335938 5.148438 1.421875 4.546875 C 0.515625 3.941406 0.0625 3.097656 0.0625 2.015625 C 0.0625 1.265625 0.296875 0.640625 0.765625 0.140625 C 1.234375 -0.359375 1.914062 -0.71875 2.8125 -0.9375 C 2.46875 -1.082031 2.164062 -1.320312 1.90625 -1.65625 C 1.644531 -1.988281 1.515625 -2.347656 1.515625 -2.734375 C 1.515625 -3.203125 1.648438 -3.59375 1.921875 -3.90625 C 2.203125 -4.21875 2.597656 -4.523438 3.109375 -4.828125 C 2.460938 -5.109375 1.945312 -5.554688 1.5625 -6.171875 C 1.1875 -6.796875 1 -7.53125 1 -8.375 C 1 -9.726562 1.4375 -10.773438 2.3125 -11.515625 C 3.195312 -12.253906 4.457031 -12.625 6.09375 -12.625 C 6.4375 -12.625 6.84375 -12.59375 7.3125 -12.53125 C 7.789062 -12.46875 8.097656 -12.421875 8.234375 -12.390625 Z M 3 1.75 C 3 2.21875 3.21875 2.582031 3.65625 2.84375 C 4.101562 3.113281 4.734375 3.25 5.546875 3.25 C 6.753906 3.25 7.703125 3.082031 8.390625 2.75 C 9.078125 2.414062 9.421875 1.960938 9.421875 1.390625 C 9.421875 0.921875 9.21875 0.597656 8.8125 0.421875 C 8.40625 0.242188 7.773438 0.15625 6.921875 0.15625 L 5.171875 0.15625 C 4.554688 0.15625 4.039062 0.300781 3.625 0.59375 C 3.207031 0.882812 3 1.269531 3 1.75 Z M 4.21875 -8.34375 C 4.21875 -7.664062 4.367188 -7.128906 4.671875 -6.734375 C 4.984375 -6.347656 5.457031 -6.15625 6.09375 -6.15625 C 6.726562 -6.15625 7.191406 -6.347656 7.484375 -6.734375 C 7.773438 -7.128906 7.921875 -7.664062 7.921875 -8.34375 C 7.921875 -9.832031 7.3125 -10.578125 6.09375 -10.578125 C 4.84375 -10.578125 4.21875 -9.832031 4.21875 -8.34375 Z M 4.21875 -8.34375 "/></g></g></g></svg>